<mxfile host="app.diagrams.net" agent="Mozilla/5.0 (X11; Linux x86_64; rv:141.0) Gecko/20100101 Firefox/141.0" version="28.0.9">
  <diagram name="Page-1" id="DsRGJmGJqcMgEW-HnMj5">
    <mxGraphModel dx="4339" dy="2342" grid="1" gridSize="10" guides="1" tooltips="1" connect="1" arrows="1" fold="1" page="1" pageScale="1" pageWidth="827" pageHeight="1169" math="0" shadow="0">
      <root>
        <mxCell id="0" />
        <mxCell id="1" parent="0" />
        <mxCell id="caR7gAtZFD9YYuB8HHjG-178" value="&lt;font style=&quot;font-size: 18px;&quot;&gt;«&lt;font&gt;Annotation&lt;/font&gt;»&lt;/font&gt;&lt;br&gt;&lt;div&gt;&lt;font style=&quot;font-size: 18px;&quot;&gt;&lt;b&gt;Desktop Application&lt;/b&gt;&lt;/font&gt;&lt;/div&gt;" style="html=1;dropTarget=0;whiteSpace=wrap;verticalAlign=top;fillColor=default;" vertex="1" parent="1">
          <mxGeometry x="-1480" y="-41" width="1240" height="1210" as="geometry" />
        </mxCell>
        <mxCell id="caR7gAtZFD9YYuB8HHjG-179" value="" style="shape=module;jettyWidth=8;jettyHeight=4;" vertex="1" parent="caR7gAtZFD9YYuB8HHjG-178">
          <mxGeometry x="1" width="20" height="20" relative="1" as="geometry">
            <mxPoint x="-27" y="7" as="offset" />
          </mxGeometry>
        </mxCell>
        <mxCell id="caR7gAtZFD9YYuB8HHjG-76" value="&lt;font style=&quot;font-size: 24px;&quot;&gt;Legend&lt;/font&gt;" style="rounded=0;whiteSpace=wrap;html=1;verticalAlign=top;fillColor=none;" vertex="1" parent="1">
          <mxGeometry x="-200" y="-41" width="200" height="370" as="geometry" />
        </mxCell>
        <mxCell id="caR7gAtZFD9YYuB8HHjG-77" value="Composition" style="rounded=0;whiteSpace=wrap;html=1;spacing=2;spacingTop=-2;" vertex="1" parent="1">
          <mxGeometry x="-190" y="-1" width="110" height="30" as="geometry" />
        </mxCell>
        <mxCell id="caR7gAtZFD9YYuB8HHjG-78" value="Association" style="rounded=0;whiteSpace=wrap;html=1;spacingTop=-2;" vertex="1" parent="1">
          <mxGeometry x="-190" y="29" width="110" height="30" as="geometry" />
        </mxCell>
        <mxCell id="caR7gAtZFD9YYuB8HHjG-79" value="Dependency" style="rounded=0;whiteSpace=wrap;html=1;spacingTop=-2;" vertex="1" parent="1">
          <mxGeometry x="-190" y="59" width="110" height="30" as="geometry" />
        </mxCell>
        <mxCell id="caR7gAtZFD9YYuB8HHjG-80" value="Interface Connection" style="rounded=0;whiteSpace=wrap;html=1;spacingTop=-2;" vertex="1" parent="1">
          <mxGeometry x="-190" y="89" width="110" height="30" as="geometry" />
        </mxCell>
        <mxCell id="caR7gAtZFD9YYuB8HHjG-81" value="Provided Interface" style="rounded=0;whiteSpace=wrap;html=1;spacingTop=-2;" vertex="1" parent="1">
          <mxGeometry x="-190" y="119" width="110" height="30" as="geometry" />
        </mxCell>
        <mxCell id="caR7gAtZFD9YYuB8HHjG-82" value="Required Interface" style="rounded=0;whiteSpace=wrap;html=1;spacingTop=-2;" vertex="1" parent="1">
          <mxGeometry x="-190" y="149" width="110" height="30" as="geometry" />
        </mxCell>
        <mxCell id="caR7gAtZFD9YYuB8HHjG-83" value="External System Connection" style="rounded=0;whiteSpace=wrap;html=1;spacingTop=-2;" vertex="1" parent="1">
          <mxGeometry x="-190" y="179" width="110" height="30" as="geometry" />
        </mxCell>
        <mxCell id="caR7gAtZFD9YYuB8HHjG-84" value="" style="endArrow=diamondThin;endFill=1;endSize=24;html=1;rounded=0;fillColor=#a0522d;strokeColor=light-dark(#6D1F00, #ffffff);" edge="1" parent="1">
          <mxGeometry width="160" relative="1" as="geometry">
            <mxPoint x="-70" y="13" as="sourcePoint" />
            <mxPoint x="-10" y="13" as="targetPoint" />
          </mxGeometry>
        </mxCell>
        <mxCell id="caR7gAtZFD9YYuB8HHjG-85" value="" style="endArrow=open;html=1;rounded=0;strokeColor=light-dark(#000000, #ffffff);startArrow=open;startFill=0;endFill=0;jumpStyle=arc;" edge="1" parent="1">
          <mxGeometry width="50" height="50" relative="1" as="geometry">
            <mxPoint x="-10" y="44" as="sourcePoint" />
            <mxPoint x="-70" y="44" as="targetPoint" />
          </mxGeometry>
        </mxCell>
        <mxCell id="caR7gAtZFD9YYuB8HHjG-86" value="Use" style="endArrow=open;endSize=12;dashed=1;html=1;rounded=0;spacingTop=-2;" edge="1" parent="1">
          <mxGeometry width="160" relative="1" as="geometry">
            <mxPoint x="-70" y="72" as="sourcePoint" />
            <mxPoint x="-10" y="72" as="targetPoint" />
          </mxGeometry>
        </mxCell>
        <mxCell id="caR7gAtZFD9YYuB8HHjG-87" value="" style="rounded=0;orthogonalLoop=1;jettySize=auto;html=1;endArrow=halfCircle;endFill=0;endSize=6;strokeWidth=1;sketch=0;" edge="1" parent="1" target="caR7gAtZFD9YYuB8HHjG-89">
          <mxGeometry relative="1" as="geometry">
            <mxPoint x="-10" y="104" as="sourcePoint" />
          </mxGeometry>
        </mxCell>
        <mxCell id="caR7gAtZFD9YYuB8HHjG-88" value="" style="rounded=0;orthogonalLoop=1;jettySize=auto;html=1;endArrow=oval;endFill=0;sketch=0;sourcePerimeterSpacing=0;targetPerimeterSpacing=0;endSize=10;" edge="1" parent="1" target="caR7gAtZFD9YYuB8HHjG-89">
          <mxGeometry relative="1" as="geometry">
            <mxPoint x="-70" y="104" as="sourcePoint" />
          </mxGeometry>
        </mxCell>
        <mxCell id="caR7gAtZFD9YYuB8HHjG-89" value="" style="ellipse;whiteSpace=wrap;html=1;align=center;aspect=fixed;fillColor=none;strokeColor=none;resizable=0;perimeter=centerPerimeter;rotatable=0;allowArrows=0;points=[];outlineConnect=1;" vertex="1" parent="1">
          <mxGeometry x="-45" y="99" width="10" height="10" as="geometry" />
        </mxCell>
        <mxCell id="caR7gAtZFD9YYuB8HHjG-90" value="" style="rounded=0;orthogonalLoop=1;jettySize=auto;html=1;endArrow=halfCircle;endFill=0;endSize=6;strokeWidth=1;sketch=0;fontSize=12;curved=1;" edge="1" parent="1">
          <mxGeometry relative="1" as="geometry">
            <mxPoint x="-10" y="134" as="sourcePoint" />
            <mxPoint x="-70" y="133.92" as="targetPoint" />
          </mxGeometry>
        </mxCell>
        <mxCell id="caR7gAtZFD9YYuB8HHjG-91" value="" style="ellipse;whiteSpace=wrap;html=1;align=center;aspect=fixed;fillColor=none;strokeColor=none;resizable=0;perimeter=centerPerimeter;rotatable=0;allowArrows=0;points=[];outlineConnect=1;" vertex="1" parent="1">
          <mxGeometry x="-50" y="129" width="10" height="10" as="geometry" />
        </mxCell>
        <mxCell id="caR7gAtZFD9YYuB8HHjG-92" value="" style="rounded=0;orthogonalLoop=1;jettySize=auto;html=1;endArrow=oval;endFill=0;sketch=0;sourcePerimeterSpacing=0;targetPerimeterSpacing=0;endSize=10;" edge="1" parent="1">
          <mxGeometry relative="1" as="geometry">
            <mxPoint x="-70" y="163.92000000000002" as="sourcePoint" />
            <mxPoint x="-15" y="164" as="targetPoint" />
          </mxGeometry>
        </mxCell>
        <mxCell id="caR7gAtZFD9YYuB8HHjG-93" value="" style="ellipse;whiteSpace=wrap;html=1;align=center;aspect=fixed;fillColor=none;strokeColor=none;resizable=0;perimeter=centerPerimeter;rotatable=0;allowArrows=0;points=[];outlineConnect=1;" vertex="1" parent="1">
          <mxGeometry x="-45" y="139" width="10" height="10" as="geometry" />
        </mxCell>
        <mxCell id="caR7gAtZFD9YYuB8HHjG-94" value="" style="shape=link;html=1;rounded=0;" edge="1" parent="1">
          <mxGeometry width="100" relative="1" as="geometry">
            <mxPoint x="-70" y="194" as="sourcePoint" />
            <mxPoint x="-10" y="193.92000000000002" as="targetPoint" />
          </mxGeometry>
        </mxCell>
        <mxCell id="caR7gAtZFD9YYuB8HHjG-95" value="Colours are used to show were a line originated from, if white then that means the relationship is bidirectional" style="rounded=0;whiteSpace=wrap;html=1;spacingTop=-2;" vertex="1" parent="1">
          <mxGeometry x="-190" y="249" width="180" height="70" as="geometry" />
        </mxCell>
        <mxCell id="caR7gAtZFD9YYuB8HHjG-96" value="&lt;div&gt;&lt;font style=&quot;font-size: 16px;&quot;&gt;«Component»&lt;/font&gt;&lt;/div&gt;&lt;font style=&quot;font-size: 16px;&quot;&gt;&lt;b&gt;&lt;font&gt;Authentication&lt;/font&gt;&lt;/b&gt;&lt;/font&gt;" style="html=1;dropTarget=0;whiteSpace=wrap;fillColor=light-dark(#1ba1e2, #f6d32d);fontColor=#ffffff;strokeColor=light-dark(default, #f6d32d);" vertex="1" parent="1">
          <mxGeometry x="-1280" y="199" width="200" height="120" as="geometry" />
        </mxCell>
        <mxCell id="caR7gAtZFD9YYuB8HHjG-97" value="" style="shape=module;jettyWidth=8;jettyHeight=4;" vertex="1" parent="caR7gAtZFD9YYuB8HHjG-96">
          <mxGeometry x="1" width="20" height="20" relative="1" as="geometry">
            <mxPoint x="-27" y="7" as="offset" />
          </mxGeometry>
        </mxCell>
        <mxCell id="caR7gAtZFD9YYuB8HHjG-98" value="" style="ellipse;whiteSpace=wrap;html=1;align=center;aspect=fixed;fillColor=none;strokeColor=none;resizable=0;perimeter=centerPerimeter;rotatable=0;allowArrows=0;points=[];outlineConnect=1;" vertex="1" parent="1">
          <mxGeometry x="-1050" y="474" width="10" height="10" as="geometry" />
        </mxCell>
        <mxCell id="caR7gAtZFD9YYuB8HHjG-99" value="&lt;div&gt;&lt;font style=&quot;font-size: 16px;&quot;&gt;«Component»&lt;/font&gt;&lt;/div&gt;&lt;font style=&quot;font-size: 16px;&quot;&gt;&lt;b&gt;&lt;font&gt;Application Shell&lt;/font&gt;&lt;/b&gt;&lt;/font&gt;" style="html=1;dropTarget=0;whiteSpace=wrap;fillColor=#a0522d;strokeColor=#6D1F00;fontColor=#ffffff;" vertex="1" parent="1">
          <mxGeometry x="-960" y="39" width="200" height="120" as="geometry" />
        </mxCell>
        <mxCell id="caR7gAtZFD9YYuB8HHjG-100" value="" style="shape=module;jettyWidth=8;jettyHeight=4;" vertex="1" parent="caR7gAtZFD9YYuB8HHjG-99">
          <mxGeometry x="1" width="20" height="20" relative="1" as="geometry">
            <mxPoint x="-27" y="7" as="offset" />
          </mxGeometry>
        </mxCell>
        <mxCell id="caR7gAtZFD9YYuB8HHjG-101" value="&lt;div&gt;&lt;font style=&quot;font-size: 16px;&quot;&gt;«Component»&lt;/font&gt;&lt;/div&gt;&lt;font style=&quot;font-size: 16px;&quot;&gt;&lt;b&gt;&lt;font&gt;Server Management&lt;/font&gt;&lt;/b&gt;&lt;/font&gt;" style="html=1;dropTarget=0;whiteSpace=wrap;fillColor=#008a00;fontColor=#ffffff;strokeColor=#005700;" vertex="1" parent="1">
          <mxGeometry x="-1280" y="1039" width="200" height="120" as="geometry" />
        </mxCell>
        <mxCell id="caR7gAtZFD9YYuB8HHjG-102" value="" style="shape=module;jettyWidth=8;jettyHeight=4;" vertex="1" parent="caR7gAtZFD9YYuB8HHjG-101">
          <mxGeometry x="1" width="20" height="20" relative="1" as="geometry">
            <mxPoint x="-27" y="7" as="offset" />
          </mxGeometry>
        </mxCell>
        <mxCell id="caR7gAtZFD9YYuB8HHjG-103" value="&lt;div&gt;&lt;font style=&quot;font-size: 16px;&quot;&gt;«Component»&lt;/font&gt;&lt;/div&gt;&lt;font style=&quot;font-size: 16px;&quot;&gt;&lt;b&gt;&lt;font&gt;Communication&lt;/font&gt;&lt;/b&gt;&lt;/font&gt;" style="html=1;dropTarget=0;whiteSpace=wrap;fillColor=light-dark(#e51400, #e01b24);fontColor=#ffffff;strokeColor=light-dark(#B20000, #ed333b);" vertex="1" parent="1">
          <mxGeometry x="-960" y="679" width="200" height="120" as="geometry" />
        </mxCell>
        <mxCell id="caR7gAtZFD9YYuB8HHjG-104" value="" style="shape=module;jettyWidth=8;jettyHeight=4;" vertex="1" parent="caR7gAtZFD9YYuB8HHjG-103">
          <mxGeometry x="1" width="20" height="20" relative="1" as="geometry">
            <mxPoint x="-27" y="7" as="offset" />
          </mxGeometry>
        </mxCell>
        <mxCell id="caR7gAtZFD9YYuB8HHjG-105" value="&lt;div&gt;&lt;font style=&quot;font-size: 16px;&quot;&gt;«Component»&lt;/font&gt;&lt;/div&gt;&lt;font style=&quot;font-size: 16px;&quot;&gt;&lt;b&gt;&lt;font&gt;Real-Time Media&lt;/font&gt;&lt;/b&gt;&lt;/font&gt;" style="html=1;dropTarget=0;whiteSpace=wrap;fillColor=#0050ef;fontColor=#ffffff;strokeColor=#001DBC;" vertex="1" parent="1">
          <mxGeometry x="-560" y="519" width="200" height="120" as="geometry" />
        </mxCell>
        <mxCell id="caR7gAtZFD9YYuB8HHjG-106" value="" style="shape=module;jettyWidth=8;jettyHeight=4;" vertex="1" parent="caR7gAtZFD9YYuB8HHjG-105">
          <mxGeometry x="1" width="20" height="20" relative="1" as="geometry">
            <mxPoint x="-27" y="7" as="offset" />
          </mxGeometry>
        </mxCell>
        <mxCell id="caR7gAtZFD9YYuB8HHjG-107" value="&lt;div&gt;&lt;font style=&quot;font-size: 16px;&quot;&gt;«Component»&lt;/font&gt;&lt;/div&gt;&lt;font style=&quot;font-size: 16px;&quot;&gt;&lt;b&gt;&lt;font&gt;Data Management&lt;/font&gt;&lt;/b&gt;&lt;/font&gt;" style="html=1;dropTarget=0;whiteSpace=wrap;fillColor=#6a00ff;fontColor=#ffffff;strokeColor=#3700CC;" vertex="1" parent="1">
          <mxGeometry x="-960" y="360" width="200" height="120" as="geometry" />
        </mxCell>
        <mxCell id="caR7gAtZFD9YYuB8HHjG-108" value="" style="shape=module;jettyWidth=8;jettyHeight=4;" vertex="1" parent="caR7gAtZFD9YYuB8HHjG-107">
          <mxGeometry x="1" width="20" height="20" relative="1" as="geometry">
            <mxPoint x="-27" y="7" as="offset" />
          </mxGeometry>
        </mxCell>
        <mxCell id="caR7gAtZFD9YYuB8HHjG-109" value="&lt;div&gt;&lt;font style=&quot;font-size: 16px;&quot;&gt;«Component»&lt;/font&gt;&lt;/div&gt;&lt;font style=&quot;font-size: 16px;&quot;&gt;&lt;b&gt;&lt;font&gt;User Management&lt;/font&gt;&lt;/b&gt;&lt;/font&gt;" style="html=1;dropTarget=0;whiteSpace=wrap;fillColor=#a20025;fontColor=#ffffff;strokeColor=#6F0000;" vertex="1" parent="1">
          <mxGeometry x="-640" y="199" width="200" height="120" as="geometry" />
        </mxCell>
        <mxCell id="caR7gAtZFD9YYuB8HHjG-110" value="" style="shape=module;jettyWidth=8;jettyHeight=4;" vertex="1" parent="caR7gAtZFD9YYuB8HHjG-109">
          <mxGeometry x="1" width="20" height="20" relative="1" as="geometry">
            <mxPoint x="-27" y="7" as="offset" />
          </mxGeometry>
        </mxCell>
        <mxCell id="caR7gAtZFD9YYuB8HHjG-111" value="&lt;div&gt;&lt;font style=&quot;font-size: 16px;&quot;&gt;«Component»&lt;/font&gt;&lt;/div&gt;&lt;font style=&quot;font-size: 16px;&quot;&gt;&lt;b&gt;&lt;font&gt;Network&lt;/font&gt;&lt;/b&gt;&lt;/font&gt;" style="html=1;dropTarget=0;whiteSpace=wrap;fillColor=light-dark(#647687, #613583);strokeColor=light-dark(#314354, #613583);fontColor=#ffffff;" vertex="1" parent="1">
          <mxGeometry x="-560" y="759" width="200" height="120" as="geometry" />
        </mxCell>
        <mxCell id="caR7gAtZFD9YYuB8HHjG-112" value="" style="shape=module;jettyWidth=8;jettyHeight=4;" vertex="1" parent="caR7gAtZFD9YYuB8HHjG-111">
          <mxGeometry x="1" width="20" height="20" relative="1" as="geometry">
            <mxPoint x="-27" y="7" as="offset" />
          </mxGeometry>
        </mxCell>
        <mxCell id="caR7gAtZFD9YYuB8HHjG-113" value="&lt;font style=&quot;font-size: 18px;&quot;&gt;Backend&lt;/font&gt;" style="ellipse;whiteSpace=wrap;html=1;aspect=fixed;" vertex="1" parent="1">
          <mxGeometry x="-165" y="759" width="120" height="120" as="geometry" />
        </mxCell>
        <mxCell id="caR7gAtZFD9YYuB8HHjG-114" value="" style="ellipse;whiteSpace=wrap;html=1;align=center;aspect=fixed;fillColor=none;strokeColor=none;resizable=0;perimeter=centerPerimeter;rotatable=0;allowArrows=0;points=[];outlineConnect=1;" vertex="1" parent="1">
          <mxGeometry x="-695" y="824" width="10" height="10" as="geometry" />
        </mxCell>
        <mxCell id="caR7gAtZFD9YYuB8HHjG-115" value="&lt;font style=&quot;font-size: 18px;&quot;&gt;Local Storage/Filesystem&lt;/font&gt;" style="ellipse;whiteSpace=wrap;html=1;aspect=fixed;" vertex="1" parent="1">
          <mxGeometry x="-1670" y="360" width="120" height="120" as="geometry" />
        </mxCell>
        <mxCell id="caR7gAtZFD9YYuB8HHjG-116" value="&lt;div&gt;&lt;font style=&quot;font-size: 16px;&quot;&gt;«Component»&lt;/font&gt;&lt;/div&gt;&lt;font style=&quot;font-size: 16px;&quot;&gt;&lt;b&gt;&lt;font&gt;Server Health&lt;/font&gt;&lt;/b&gt;&lt;/font&gt;" style="html=1;dropTarget=0;whiteSpace=wrap;fillColor=#f0a30a;fontColor=#000000;strokeColor=#BD7000;" vertex="1" parent="1">
          <mxGeometry x="-1360" y="759" width="200" height="120" as="geometry" />
        </mxCell>
        <mxCell id="caR7gAtZFD9YYuB8HHjG-117" value="" style="shape=module;jettyWidth=8;jettyHeight=4;" vertex="1" parent="caR7gAtZFD9YYuB8HHjG-116">
          <mxGeometry x="1" width="20" height="20" relative="1" as="geometry">
            <mxPoint x="-27" y="7" as="offset" />
          </mxGeometry>
        </mxCell>
        <mxCell id="caR7gAtZFD9YYuB8HHjG-118" value="&lt;div&gt;&lt;font style=&quot;font-size: 16px;&quot;&gt;«Component»&lt;/font&gt;&lt;/div&gt;&lt;font style=&quot;font-size: 16px;&quot;&gt;&lt;b&gt;&lt;font&gt;Media&lt;/font&gt;&lt;/b&gt;&lt;/font&gt;" style="html=1;dropTarget=0;whiteSpace=wrap;fillColor=light-dark(#60A917,#305909);fontColor=#ffffff;strokeColor=light-dark(#2D7600,#385924);" vertex="1" parent="1">
          <mxGeometry x="-1360" y="519" width="200" height="120" as="geometry" />
        </mxCell>
        <mxCell id="caR7gAtZFD9YYuB8HHjG-119" value="" style="shape=module;jettyWidth=8;jettyHeight=4;" vertex="1" parent="caR7gAtZFD9YYuB8HHjG-118">
          <mxGeometry x="1" width="20" height="20" relative="1" as="geometry">
            <mxPoint x="-27" y="7" as="offset" />
          </mxGeometry>
        </mxCell>
        <mxCell id="caR7gAtZFD9YYuB8HHjG-120" value="" style="endArrow=diamondThin;endFill=1;endSize=24;html=1;rounded=0;exitX=0;exitY=0.5;exitDx=0;exitDy=0;fillColor=#a0522d;strokeColor=#6D1F00;entryX=0;entryY=0.5;entryDx=0;entryDy=0;" edge="1" parent="1" source="caR7gAtZFD9YYuB8HHjG-99" target="caR7gAtZFD9YYuB8HHjG-118">
          <mxGeometry width="160" relative="1" as="geometry">
            <mxPoint x="-970" y="664" as="sourcePoint" />
            <mxPoint x="-1370" y="509" as="targetPoint" />
            <Array as="points">
              <mxPoint x="-1400" y="99" />
              <mxPoint x="-1400" y="579" />
            </Array>
          </mxGeometry>
        </mxCell>
        <mxCell id="caR7gAtZFD9YYuB8HHjG-122" value="" style="endArrow=diamondThin;endFill=1;endSize=24;html=1;rounded=0;exitX=1;exitY=0.5;exitDx=0;exitDy=0;fillColor=#a0522d;strokeColor=#6D1F00;entryX=0.25;entryY=0;entryDx=0;entryDy=0;" edge="1" parent="1" source="caR7gAtZFD9YYuB8HHjG-99" target="caR7gAtZFD9YYuB8HHjG-109">
          <mxGeometry width="160" relative="1" as="geometry">
            <mxPoint x="-650" y="829" as="sourcePoint" />
            <mxPoint x="-450" y="739" as="targetPoint" />
            <Array as="points">
              <mxPoint x="-590" y="99" />
            </Array>
          </mxGeometry>
        </mxCell>
        <mxCell id="caR7gAtZFD9YYuB8HHjG-123" value="" style="endArrow=diamondThin;endFill=1;endSize=24;html=1;rounded=0;exitX=0.5;exitY=1;exitDx=0;exitDy=0;fillColor=#a0522d;strokeColor=#6D1F00;entryX=0.5;entryY=0;entryDx=0;entryDy=0;" edge="1" parent="1" source="caR7gAtZFD9YYuB8HHjG-99" target="caR7gAtZFD9YYuB8HHjG-107">
          <mxGeometry width="160" relative="1" as="geometry">
            <mxPoint x="-790" y="749" as="sourcePoint" />
            <mxPoint x="-990" y="659" as="targetPoint" />
          </mxGeometry>
        </mxCell>
        <mxCell id="caR7gAtZFD9YYuB8HHjG-124" value="" style="endArrow=diamondThin;endFill=1;endSize=24;html=1;rounded=0;exitX=0;exitY=0.5;exitDx=0;exitDy=0;fillColor=#a0522d;strokeColor=#6D1F00;entryX=0;entryY=0.25;entryDx=0;entryDy=0;" edge="1" parent="1" source="caR7gAtZFD9YYuB8HHjG-99" target="caR7gAtZFD9YYuB8HHjG-116">
          <mxGeometry width="160" relative="1" as="geometry">
            <mxPoint x="-1025" y="1179" as="sourcePoint" />
            <mxPoint x="-1145" y="809" as="targetPoint" />
            <Array as="points">
              <mxPoint x="-1400" y="99" />
              <mxPoint x="-1400" y="789" />
            </Array>
          </mxGeometry>
        </mxCell>
        <mxCell id="caR7gAtZFD9YYuB8HHjG-125" value="" style="endArrow=diamondThin;endFill=1;endSize=24;html=1;rounded=0;exitX=0;exitY=0.5;exitDx=0;exitDy=0;fillColor=#a0522d;strokeColor=#6D1F00;entryX=0;entryY=0.25;entryDx=0;entryDy=0;" edge="1" parent="1" source="caR7gAtZFD9YYuB8HHjG-99" target="caR7gAtZFD9YYuB8HHjG-101">
          <mxGeometry width="160" relative="1" as="geometry">
            <mxPoint x="-880" y="969" as="sourcePoint" />
            <mxPoint x="-1080" y="1099" as="targetPoint" />
            <Array as="points">
              <mxPoint x="-1400" y="99" />
              <mxPoint x="-1400" y="1069" />
            </Array>
          </mxGeometry>
        </mxCell>
        <mxCell id="caR7gAtZFD9YYuB8HHjG-126" value="" style="endArrow=diamondThin;endFill=1;endSize=24;html=1;rounded=0;exitX=1;exitY=0.5;exitDx=0;exitDy=0;fillColor=#a0522d;strokeColor=#6D1F00;entryX=1;entryY=0.25;entryDx=0;entryDy=0;" edge="1" parent="1" source="caR7gAtZFD9YYuB8HHjG-99" target="caR7gAtZFD9YYuB8HHjG-111">
          <mxGeometry width="160" relative="1" as="geometry">
            <mxPoint x="-460" y="749" as="sourcePoint" />
            <mxPoint x="-330" y="799" as="targetPoint" />
            <Array as="points">
              <mxPoint x="-320" y="99" />
              <mxPoint x="-320" y="789" />
            </Array>
          </mxGeometry>
        </mxCell>
        <mxCell id="caR7gAtZFD9YYuB8HHjG-127" value="Use" style="endArrow=open;endSize=12;dashed=1;html=1;rounded=0;exitX=1;exitY=0.75;exitDx=0;exitDy=0;fillColor=#a0522d;strokeColor=light-dark(#6D1F00,#ED333B);jumpStyle=arc;labelPosition=center;verticalLabelPosition=bottom;align=center;verticalAlign=top;startArrow=none;startFill=0;startSize=12;entryX=0;entryY=0.25;entryDx=0;entryDy=0;" edge="1" parent="1" source="caR7gAtZFD9YYuB8HHjG-103" target="caR7gAtZFD9YYuB8HHjG-111">
          <mxGeometry width="160" relative="1" as="geometry">
            <mxPoint x="-310" y="619" as="sourcePoint" />
            <mxPoint x="-540" y="679" as="targetPoint" />
            <Array as="points">
              <mxPoint x="-660" y="769" />
              <mxPoint x="-660" y="789" />
            </Array>
          </mxGeometry>
        </mxCell>
        <mxCell id="caR7gAtZFD9YYuB8HHjG-131" value="Use" style="endArrow=open;endSize=12;dashed=1;html=1;rounded=0;exitX=1;exitY=0.25;exitDx=0;exitDy=0;fillColor=#a0522d;strokeColor=light-dark(#6D1F00,#F6D32D);jumpStyle=arc;labelPosition=center;verticalLabelPosition=bottom;align=center;verticalAlign=top;startArrow=none;startFill=0;startSize=12;entryX=0;entryY=0.25;entryDx=0;entryDy=0;spacingTop=-5;" edge="1" parent="1" source="caR7gAtZFD9YYuB8HHjG-96" target="caR7gAtZFD9YYuB8HHjG-109">
          <mxGeometry x="0.3182" y="9" width="160" relative="1" as="geometry">
            <mxPoint x="-380" y="799" as="sourcePoint" />
            <mxPoint x="-740" y="519" as="targetPoint" />
            <Array as="points" />
            <mxPoint as="offset" />
          </mxGeometry>
        </mxCell>
        <mxCell id="caR7gAtZFD9YYuB8HHjG-132" value="Use" style="endArrow=open;endSize=12;dashed=1;html=1;rounded=0;exitX=1;exitY=0.5;exitDx=0;exitDy=0;fillColor=#a0522d;strokeColor=light-dark(#6D1F00,#F6D32D);jumpStyle=arc;labelPosition=center;verticalLabelPosition=bottom;align=center;verticalAlign=top;startArrow=none;startFill=0;startSize=12;entryX=0.25;entryY=0;entryDx=0;entryDy=0;spacingTop=-5;" edge="1" parent="1" source="caR7gAtZFD9YYuB8HHjG-96" target="caR7gAtZFD9YYuB8HHjG-107">
          <mxGeometry y="-10" width="160" relative="1" as="geometry">
            <mxPoint x="-560" y="1069" as="sourcePoint" />
            <mxPoint x="-440" y="669" as="targetPoint" />
            <Array as="points">
              <mxPoint x="-910" y="259" />
            </Array>
            <mxPoint as="offset" />
          </mxGeometry>
        </mxCell>
        <mxCell id="caR7gAtZFD9YYuB8HHjG-137" value="Use" style="endArrow=open;endSize=12;dashed=1;html=1;rounded=0;exitX=0;exitY=0.5;exitDx=0;exitDy=0;fillColor=#a0522d;strokeColor=light-dark(#6D1F00,#FFC5C5);jumpStyle=arc;labelPosition=center;verticalLabelPosition=bottom;align=center;verticalAlign=top;startArrow=none;startFill=0;startSize=12;entryX=0.75;entryY=0;entryDx=0;entryDy=0;spacingTop=-5;" edge="1" parent="1" source="caR7gAtZFD9YYuB8HHjG-109" target="caR7gAtZFD9YYuB8HHjG-107">
          <mxGeometry y="-10" width="160" relative="1" as="geometry">
            <mxPoint x="-570" y="529" as="sourcePoint" />
            <mxPoint x="-400" y="459" as="targetPoint" />
            <Array as="points">
              <mxPoint x="-810" y="260" />
            </Array>
            <mxPoint as="offset" />
          </mxGeometry>
        </mxCell>
        <mxCell id="caR7gAtZFD9YYuB8HHjG-140" value="" style="endArrow=none;html=1;edgeStyle=orthogonalEdgeStyle;rounded=0;exitX=0.25;exitY=1;exitDx=0;exitDy=0;entryX=0.75;entryY=0;entryDx=0;entryDy=0;" edge="1" parent="1" source="caR7gAtZFD9YYuB8HHjG-109" target="caR7gAtZFD9YYuB8HHjG-103">
          <mxGeometry relative="1" as="geometry">
            <mxPoint x="-860" y="529" as="sourcePoint" />
            <mxPoint x="-700" y="529" as="targetPoint" />
            <Array as="points">
              <mxPoint x="-590" y="559" />
              <mxPoint x="-810" y="559" />
            </Array>
          </mxGeometry>
        </mxCell>
        <mxCell id="caR7gAtZFD9YYuB8HHjG-143" value="" style="rounded=0;orthogonalLoop=1;jettySize=auto;html=1;endArrow=oval;endFill=0;sketch=0;sourcePerimeterSpacing=0;targetPerimeterSpacing=0;endSize=10;exitX=0.25;exitY=0;exitDx=0;exitDy=0;strokeColor=light-dark(#000000,#A9B8C7);jumpStyle=arc;" edge="1" parent="1" source="caR7gAtZFD9YYuB8HHjG-111">
          <mxGeometry relative="1" as="geometry">
            <mxPoint x="-700" y="709" as="sourcePoint" />
            <mxPoint x="-630" y="739" as="targetPoint" />
            <Array as="points">
              <mxPoint x="-510" y="739" />
            </Array>
          </mxGeometry>
        </mxCell>
        <mxCell id="caR7gAtZFD9YYuB8HHjG-144" value="" style="rounded=0;orthogonalLoop=1;jettySize=auto;html=1;endArrow=halfCircle;endFill=0;endSize=6;strokeWidth=1;sketch=0;strokeColor=light-dark(#000000,#ED333B);jumpStyle=arc;exitX=1;exitY=0.5;exitDx=0;exitDy=0;" edge="1" parent="1" source="caR7gAtZFD9YYuB8HHjG-103">
          <mxGeometry relative="1" as="geometry">
            <mxPoint x="-860" y="679" as="sourcePoint" />
            <mxPoint x="-630" y="739" as="targetPoint" />
            <Array as="points">
              <mxPoint x="-680" y="739" />
            </Array>
          </mxGeometry>
        </mxCell>
        <mxCell id="caR7gAtZFD9YYuB8HHjG-145" value="Send&lt;br&gt;Requests" style="edgeLabel;html=1;align=center;verticalAlign=middle;resizable=0;points=[];" vertex="1" connectable="0" parent="caR7gAtZFD9YYuB8HHjG-144">
          <mxGeometry x="0.3793" relative="1" as="geometry">
            <mxPoint x="-10" as="offset" />
          </mxGeometry>
        </mxCell>
        <mxCell id="caR7gAtZFD9YYuB8HHjG-151" value="Use" style="endArrow=open;endSize=12;dashed=1;html=1;rounded=0;fillColor=#a0522d;strokeColor=light-dark(#6D1F00,#ED333B);jumpStyle=arc;labelPosition=center;verticalLabelPosition=bottom;align=center;verticalAlign=top;startArrow=none;startFill=0;startSize=12;entryX=0;entryY=0.75;entryDx=0;entryDy=0;spacingTop=-5;exitX=0.5;exitY=0;exitDx=0;exitDy=0;" edge="1" parent="1" source="caR7gAtZFD9YYuB8HHjG-103" target="caR7gAtZFD9YYuB8HHjG-109">
          <mxGeometry x="-0.3443" y="10" width="160" relative="1" as="geometry">
            <mxPoint x="-810" y="679" as="sourcePoint" />
            <mxPoint x="-690" y="399" as="targetPoint" />
            <mxPoint as="offset" />
            <Array as="points">
              <mxPoint x="-860" y="540" />
              <mxPoint x="-680" y="540" />
              <mxPoint x="-680" y="289" />
            </Array>
          </mxGeometry>
        </mxCell>
        <mxCell id="caR7gAtZFD9YYuB8HHjG-152" value="" style="endArrow=none;html=1;edgeStyle=orthogonalEdgeStyle;rounded=0;exitX=1;exitY=0;exitDx=0;exitDy=0;entryX=0.75;entryY=1;entryDx=0;entryDy=0;jumpStyle=arc;" edge="1" parent="1" source="caR7gAtZFD9YYuB8HHjG-103" target="caR7gAtZFD9YYuB8HHjG-105">
          <mxGeometry relative="1" as="geometry">
            <mxPoint x="-360" y="669" as="sourcePoint" />
            <mxPoint x="-330" y="829" as="targetPoint" />
          </mxGeometry>
        </mxCell>
        <mxCell id="caR7gAtZFD9YYuB8HHjG-154" value="Use" style="endArrow=open;endSize=12;dashed=1;html=1;rounded=0;exitX=0.25;exitY=0;exitDx=0;exitDy=0;fillColor=#a0522d;strokeColor=light-dark(#6D1F00,#ED333B);jumpStyle=arc;labelPosition=center;verticalLabelPosition=bottom;align=center;verticalAlign=top;startArrow=none;startFill=0;startSize=12;entryX=0.75;entryY=1;entryDx=0;entryDy=0;spacingTop=-5;" edge="1" parent="1" source="caR7gAtZFD9YYuB8HHjG-103" target="caR7gAtZFD9YYuB8HHjG-107">
          <mxGeometry width="160" relative="1" as="geometry">
            <mxPoint x="-500" y="744" as="sourcePoint" />
            <mxPoint x="-530" y="539" as="targetPoint" />
            <Array as="points">
              <mxPoint x="-910" y="520" />
              <mxPoint x="-810" y="520" />
            </Array>
          </mxGeometry>
        </mxCell>
        <mxCell id="caR7gAtZFD9YYuB8HHjG-158" value="Use" style="endArrow=open;endSize=12;dashed=1;html=1;rounded=0;exitX=0.25;exitY=0;exitDx=0;exitDy=0;fillColor=#a0522d;strokeColor=light-dark(#6D1F00,#385924);jumpStyle=arc;labelPosition=center;verticalLabelPosition=bottom;align=center;verticalAlign=top;startArrow=none;startFill=0;startSize=12;spacingTop=-4;entryX=0;entryY=0;entryDx=0;entryDy=0;" edge="1" parent="1" source="caR7gAtZFD9YYuB8HHjG-118" target="caR7gAtZFD9YYuB8HHjG-107">
          <mxGeometry width="160" relative="1" as="geometry">
            <mxPoint x="-560" y="819" as="sourcePoint" />
            <mxPoint x="-910" y="480" as="targetPoint" />
            <Array as="points">
              <mxPoint x="-1310" y="360" />
            </Array>
          </mxGeometry>
        </mxCell>
        <mxCell id="caR7gAtZFD9YYuB8HHjG-160" value="" style="endArrow=none;html=1;edgeStyle=orthogonalEdgeStyle;rounded=0;exitX=0;exitY=0.5;exitDx=0;exitDy=0;entryX=0.75;entryY=1;entryDx=0;entryDy=0;" edge="1" parent="1" source="caR7gAtZFD9YYuB8HHjG-103" target="caR7gAtZFD9YYuB8HHjG-118">
          <mxGeometry relative="1" as="geometry">
            <mxPoint x="-400" y="719" as="sourcePoint" />
            <mxPoint x="-370" y="919" as="targetPoint" />
          </mxGeometry>
        </mxCell>
        <mxCell id="caR7gAtZFD9YYuB8HHjG-161" value="Use" style="endArrow=open;endSize=12;dashed=1;html=1;rounded=0;exitX=0.75;exitY=1;exitDx=0;exitDy=0;fillColor=#a0522d;strokeColor=light-dark(#6D1F00,#F6D32D);jumpStyle=arc;labelPosition=center;verticalLabelPosition=bottom;align=center;verticalAlign=top;startArrow=none;startFill=0;startSize=12;spacingTop=-5;entryX=0;entryY=0.25;entryDx=0;entryDy=0;" edge="1" parent="1" source="caR7gAtZFD9YYuB8HHjG-96" target="caR7gAtZFD9YYuB8HHjG-103">
          <mxGeometry x="0.2179" width="160" relative="1" as="geometry">
            <mxPoint x="-690" y="549" as="sourcePoint" />
            <mxPoint x="-540" y="509" as="targetPoint" />
            <Array as="points">
              <mxPoint x="-1130" y="350" />
              <mxPoint x="-1020" y="350" />
              <mxPoint x="-1020" y="709" />
            </Array>
            <mxPoint as="offset" />
          </mxGeometry>
        </mxCell>
        <mxCell id="caR7gAtZFD9YYuB8HHjG-162" value="" style="endArrow=diamondThin;endFill=1;endSize=24;html=1;rounded=0;exitX=1;exitY=0.5;exitDx=0;exitDy=0;fillColor=#a0522d;strokeColor=#6D1F00;entryX=1;entryY=0.5;entryDx=0;entryDy=0;" edge="1" parent="1" source="caR7gAtZFD9YYuB8HHjG-99" target="caR7gAtZFD9YYuB8HHjG-105">
          <mxGeometry width="160" relative="1" as="geometry">
            <mxPoint x="-460" y="589" as="sourcePoint" />
            <mxPoint x="-860" y="1069" as="targetPoint" />
            <Array as="points">
              <mxPoint x="-320" y="99" />
              <mxPoint x="-320" y="579" />
            </Array>
          </mxGeometry>
        </mxCell>
        <mxCell id="caR7gAtZFD9YYuB8HHjG-164" value="Use" style="endArrow=open;endSize=12;dashed=1;html=1;rounded=0;exitX=0.75;exitY=0;exitDx=0;exitDy=0;fillColor=#a0522d;strokeColor=light-dark(#6D1F00,#B2CBFF);jumpStyle=arc;labelPosition=center;verticalLabelPosition=bottom;align=center;verticalAlign=top;startArrow=none;startFill=0;startSize=12;entryX=0.75;entryY=1;entryDx=0;entryDy=0;spacingTop=-15;" edge="1" parent="1" source="caR7gAtZFD9YYuB8HHjG-105" target="caR7gAtZFD9YYuB8HHjG-109">
          <mxGeometry width="160" relative="1" as="geometry">
            <mxPoint x="-510" y="519" as="sourcePoint" />
            <mxPoint x="-340" y="419" as="targetPoint" />
            <Array as="points">
              <mxPoint x="-410" y="409" />
              <mxPoint x="-490" y="409" />
            </Array>
            <mxPoint as="offset" />
          </mxGeometry>
        </mxCell>
        <mxCell id="caR7gAtZFD9YYuB8HHjG-165" value="Use" style="endArrow=open;endSize=12;dashed=1;html=1;rounded=0;exitX=0.25;exitY=0;exitDx=0;exitDy=0;fillColor=#a0522d;strokeColor=light-dark(#6D1F00,#B2CBFF);jumpStyle=arc;labelPosition=center;verticalLabelPosition=bottom;align=center;verticalAlign=top;startArrow=none;startFill=0;startSize=12;entryX=1;entryY=0.25;entryDx=0;entryDy=0;spacingTop=-15;" edge="1" parent="1" source="caR7gAtZFD9YYuB8HHjG-105" target="caR7gAtZFD9YYuB8HHjG-107">
          <mxGeometry width="160" relative="1" as="geometry">
            <mxPoint x="-360" y="709" as="sourcePoint" />
            <mxPoint x="-440" y="509" as="targetPoint" />
            <Array as="points">
              <mxPoint x="-510" y="390" />
            </Array>
          </mxGeometry>
        </mxCell>
        <mxCell id="caR7gAtZFD9YYuB8HHjG-166" value="" style="endArrow=none;html=1;edgeStyle=orthogonalEdgeStyle;rounded=0;exitX=1;exitY=0.25;exitDx=0;exitDy=0;entryX=0.25;entryY=1;entryDx=0;entryDy=0;jumpStyle=arc;" edge="1" parent="1" source="caR7gAtZFD9YYuB8HHjG-101" target="caR7gAtZFD9YYuB8HHjG-103">
          <mxGeometry relative="1" as="geometry">
            <mxPoint x="-700" y="1159" as="sourcePoint" />
            <mxPoint x="-350" y="1089" as="targetPoint" />
          </mxGeometry>
        </mxCell>
        <mxCell id="caR7gAtZFD9YYuB8HHjG-167" value="Use" style="endArrow=open;endSize=12;dashed=1;html=1;rounded=0;exitX=0.75;exitY=0;exitDx=0;exitDy=0;fillColor=#a0522d;strokeColor=light-dark(#6D1F00,#82CD82);jumpStyle=arc;labelPosition=center;verticalLabelPosition=bottom;align=center;verticalAlign=top;startArrow=none;startFill=0;startSize=12;entryX=0;entryY=0.25;entryDx=0;entryDy=0;spacingTop=-5;" edge="1" parent="1" source="caR7gAtZFD9YYuB8HHjG-101" target="caR7gAtZFD9YYuB8HHjG-107">
          <mxGeometry width="160" relative="1" as="geometry">
            <mxPoint x="-840" y="1259" as="sourcePoint" />
            <mxPoint x="-1010" y="899" as="targetPoint" />
            <Array as="points">
              <mxPoint x="-1130" y="390" />
            </Array>
          </mxGeometry>
        </mxCell>
        <mxCell id="caR7gAtZFD9YYuB8HHjG-168" value="" style="endArrow=none;html=1;edgeStyle=orthogonalEdgeStyle;rounded=0;exitX=0.25;exitY=0;exitDx=0;exitDy=0;entryX=0.75;entryY=1;entryDx=0;entryDy=0;jumpStyle=arc;" edge="1" parent="1" source="caR7gAtZFD9YYuB8HHjG-101" target="caR7gAtZFD9YYuB8HHjG-116">
          <mxGeometry relative="1" as="geometry">
            <mxPoint x="-790" y="1339" as="sourcePoint" />
            <mxPoint x="-620" y="1009" as="targetPoint" />
          </mxGeometry>
        </mxCell>
        <mxCell id="caR7gAtZFD9YYuB8HHjG-171" value="Use" style="endArrow=open;endSize=12;dashed=1;html=1;rounded=0;exitX=1;exitY=0.5;exitDx=0;exitDy=0;fillColor=#a0522d;strokeColor=light-dark(#6D1F00,#C17F1F);jumpStyle=arc;labelPosition=center;verticalLabelPosition=bottom;align=center;verticalAlign=top;startArrow=none;startFill=0;startSize=12;entryX=0.5;entryY=1;entryDx=0;entryDy=0;spacingTop=-5;" edge="1" parent="1" source="caR7gAtZFD9YYuB8HHjG-116" target="caR7gAtZFD9YYuB8HHjG-107">
          <mxGeometry width="160" relative="1" as="geometry">
            <mxPoint x="-870" y="1069" as="sourcePoint" />
            <mxPoint x="-1040" y="709" as="targetPoint" />
            <Array as="points">
              <mxPoint x="-1100" y="820" />
              <mxPoint x="-1100" y="500" />
              <mxPoint x="-860" y="500" />
            </Array>
          </mxGeometry>
        </mxCell>
        <mxCell id="caR7gAtZFD9YYuB8HHjG-172" value="Use" style="endArrow=open;endSize=12;dashed=1;html=1;rounded=0;exitX=0;exitY=0.75;exitDx=0;exitDy=0;fillColor=#a0522d;strokeColor=light-dark(#6D1F00,#613583);jumpStyle=arc;labelPosition=center;verticalLabelPosition=bottom;align=center;verticalAlign=top;startArrow=none;startFill=0;startSize=12;entryX=0;entryY=0.75;entryDx=0;entryDy=0;spacingTop=-5;" edge="1" parent="1" source="caR7gAtZFD9YYuB8HHjG-111" target="caR7gAtZFD9YYuB8HHjG-107">
          <mxGeometry width="160" relative="1" as="geometry">
            <mxPoint x="-530" y="1219" as="sourcePoint" />
            <mxPoint x="-700" y="859" as="targetPoint" />
            <Array as="points">
              <mxPoint x="-1060" y="849" />
              <mxPoint x="-1060" y="450" />
            </Array>
          </mxGeometry>
        </mxCell>
        <mxCell id="caR7gAtZFD9YYuB8HHjG-175" value="" style="shape=link;html=1;rounded=0;exitX=1;exitY=0.5;exitDx=0;exitDy=0;entryX=0;entryY=0.5;entryDx=0;entryDy=0;" edge="1" parent="1" source="caR7gAtZFD9YYuB8HHjG-181" target="caR7gAtZFD9YYuB8HHjG-113">
          <mxGeometry width="100" relative="1" as="geometry">
            <mxPoint x="-460.42" y="879" as="sourcePoint" />
            <mxPoint x="-460.42" y="1059" as="targetPoint" />
          </mxGeometry>
        </mxCell>
        <mxCell id="caR7gAtZFD9YYuB8HHjG-176" value="" style="endArrow=diamondThin;endFill=1;endSize=24;html=1;rounded=0;exitX=1;exitY=0.5;exitDx=0;exitDy=0;fillColor=#a0522d;strokeColor=#6D1F00;entryX=1;entryY=0.25;entryDx=0;entryDy=0;" edge="1" parent="1" source="caR7gAtZFD9YYuB8HHjG-99" target="caR7gAtZFD9YYuB8HHjG-103">
          <mxGeometry width="160" relative="1" as="geometry">
            <mxPoint x="-740" y="129" as="sourcePoint" />
            <mxPoint x="-340" y="609" as="targetPoint" />
            <Array as="points">
              <mxPoint x="-320" y="99" />
              <mxPoint x="-320" y="709" />
            </Array>
          </mxGeometry>
        </mxCell>
        <mxCell id="caR7gAtZFD9YYuB8HHjG-177" value="" style="shape=link;html=1;rounded=0;exitX=0;exitY=0.5;exitDx=0;exitDy=0;entryX=1;entryY=0.5;entryDx=0;entryDy=0;" edge="1" parent="1" source="caR7gAtZFD9YYuB8HHjG-183" target="caR7gAtZFD9YYuB8HHjG-115">
          <mxGeometry width="100" relative="1" as="geometry">
            <mxPoint x="-1400" y="339" as="sourcePoint" />
            <mxPoint x="-1400" y="639" as="targetPoint" />
          </mxGeometry>
        </mxCell>
        <mxCell id="caR7gAtZFD9YYuB8HHjG-182" value="" style="shape=link;html=1;rounded=0;exitX=1;exitY=0.5;exitDx=0;exitDy=0;entryX=0;entryY=0.5;entryDx=0;entryDy=0;" edge="1" parent="1" source="caR7gAtZFD9YYuB8HHjG-111" target="caR7gAtZFD9YYuB8HHjG-181">
          <mxGeometry width="100" relative="1" as="geometry">
            <mxPoint x="-360" y="819" as="sourcePoint" />
            <mxPoint x="-165" y="819" as="targetPoint" />
          </mxGeometry>
        </mxCell>
        <mxCell id="caR7gAtZFD9YYuB8HHjG-181" value="" style="rounded=0;whiteSpace=wrap;html=1;" vertex="1" parent="1">
          <mxGeometry x="-250" y="809" width="20" height="20" as="geometry" />
        </mxCell>
        <mxCell id="caR7gAtZFD9YYuB8HHjG-184" value="" style="shape=link;html=1;rounded=0;exitX=0;exitY=0.5;exitDx=0;exitDy=0;entryX=1;entryY=0.5;entryDx=0;entryDy=0;" edge="1" parent="1" source="caR7gAtZFD9YYuB8HHjG-107" target="caR7gAtZFD9YYuB8HHjG-183">
          <mxGeometry width="100" relative="1" as="geometry">
            <mxPoint x="-1280" y="259" as="sourcePoint" />
            <mxPoint x="-1540" y="259" as="targetPoint" />
          </mxGeometry>
        </mxCell>
        <mxCell id="caR7gAtZFD9YYuB8HHjG-183" value="" style="rounded=0;whiteSpace=wrap;html=1;" vertex="1" parent="1">
          <mxGeometry x="-1490" y="410" width="20" height="20" as="geometry" />
        </mxCell>
        <mxCell id="caR7gAtZFD9YYuB8HHjG-185" value="Port" style="rounded=0;whiteSpace=wrap;html=1;spacingTop=-2;" vertex="1" parent="1">
          <mxGeometry x="-190" y="209" width="110" height="30" as="geometry" />
        </mxCell>
        <mxCell id="caR7gAtZFD9YYuB8HHjG-187" value="" style="rounded=0;whiteSpace=wrap;html=1;" vertex="1" parent="1">
          <mxGeometry x="-50" y="214" width="20" height="20" as="geometry" />
        </mxCell>
      </root>
    </mxGraphModel>
  </diagram>
</mxfile>
